<svg data-name="Layer 1" xmlns="http://www.w3.org/2000/svg" height="25"
                            width="25" viewBox="0 0 128 128">
                            <path
                                d="M123.25 61.43a8.818 8.818 0 0 0-8.81-8.81H84.717l1.912-7.711a30.52 30.52 0 0 0-.436-16.19l-2.229-7.31a8.53 8.53 0 0 0-3.064-4.338 8.471 8.471 0 0 0-13.444 5.773c-.32 2.571-.762 6.153-1.361 11.085C64.526 46.818 53.226 60.97 44.5 60.97H32.375v-1.628a1.75 1.75 0 0 0-1.75-1.75H6.5a1.75 1.75 0 0 0-1.75 1.75v51.5a1.75 1.75 0 0 0 1.75 1.75h24.125a1.75 1.75 0 0 0 1.75-1.75v-1.622h11.739c4.677 2.083 14.47 3.37 25.775 3.37H99.86a8.815 8.815 0 0 0 8.81-8.8 8.716 8.716 0 0 0-1.957-5.538 8.825 8.825 0 0 0 6.817-8.583 8.713 8.713 0 0 0-1.957-5.538 8.825 8.825 0 0 0 6.816-8.583 8.714 8.714 0 0 0-1.956-5.537 8.825 8.825 0 0 0 6.817-8.581zm-115 47.662v-48h20.625v47.999zm24.125-3.372V64.47H42.75v41.25zm82.065-38.98h-4.86a1.75 1.75 0 1 0 0 3.5 5.316 5.316 0 0 1 5.31 5.31 5.316 5.316 0 0 1-5.31 5.31h-4.86a1.75 1.75 0 0 0 0 3.5 5.318 5.318 0 0 1 5.311 5.31 5.316 5.316 0 0 1-5.311 5.31h-4.86a1.75 1.75 0 0 0 0 3.5 5.3 5.3 0 1 1 0 10.61H69.89c-12.087 0-20.005-1.419-23.64-2.783V64.323C56.3 62.75 67.887 48.178 69.567 34.352c.6-4.928 1.039-8.506 1.36-11.081a4.971 4.971 0 0 1 9.688-.84l2.229 7.309a27.012 27.012 0 0 1 .386 14.33l-2.449 9.88a1.75 1.75 0 0 0 1.7 2.171h31.96a5.317 5.317 0 0 1 5.31 5.31 5.316 5.316 0 0 1-5.311 5.309z" />
                            <path
                                d="M12.5 80.75a1.75 1.75 0 0 0-1.75 1.75v22.342a1.75 1.75 0 0 0 3.5 0V82.5a1.75 1.75 0 0 0-1.75-1.75z" />
                        </svg>