<?xml version="1.0" encoding="utf-8"?>
<!-- Generator: Adobe Illustrator 24.3.0, SVG Export Plug-In . SVG Version: 6.00 Build 0)  -->
<svg version="1.0" id="katman_1" xmlns="http://www.w3.org/2000/svg" xmlns:xlink="http://www.w3.org/1999/xlink" x="0px" y="0px"
	 viewBox="0 0 841.89 595.28" style="enable-background:new 0 0 841.89 595.28;" xml:space="preserve">
<style type="text/css">
	.st0{fill-rule:evenodd;clip-rule:evenodd;fill:#49525E;}
</style>
<path class="st0" d="M455.76,520.45c-42.81,6.85-89.05,3.43-130.15-10.28c-41.1-13.7-66.79-35.96-80.49-53.09
	c-8.56-10.28-13.7-18.84-17.13-25.69c-8.56,3.43-17.13,5.14-23.98,3.43c-8.56-1.71-13.7-6.85-15.41-10.28l0,0
	c-6.85-5.14-15.41-34.25-3.43-53.09c6.85-10.28,17.13-11.99,23.98-11.99c-6.85-80.49,1.71-114.74,20.55-148.99
	c10.28-17.13,23.98-35.96,42.81-51.38c3.43-3.43,10.28-1.71,11.99,1.71c3.43,3.43,3.43,8.56-1.71,11.99
	c-17.13,13.7-30.83,30.83-39.39,46.24c-8.56,18.84-13.7,35.96-17.13,56.51c-3.43,23.98-3.43,53.09,1.71,94.19
	c0,3.43-1.71,6.85-3.43,8.56s-5.14,1.71-8.56,0c-1.71,0-10.28-3.43-17.13,3.43c-6.85,8.56-1.71,25.69,1.71,30.83l0,0
	c3.43,3.43,10.28,10.28,27.4-1.71c1.71-1.71,5.14-1.71,6.85-1.71c3.43,0,5.14,3.43,5.14,5.14c0,0,5.14,13.7,18.84,30.83
	c18.84,22.26,42.81,37.68,71.93,47.95c77.06,23.98,181.53,17.13,243.18-54.8c18.84-20.55,29.11-47.95,32.54-85.63
	c0-3.43,1.71-5.14,3.43-6.85c1.71-1.71,5.14-1.71,6.85,0c3.43,1.71,15.41,5.14,23.98,0c3.43-1.71,5.14-5.14,6.85-11.99
	c1.71-15.41-6.85-22.26-10.28-25.69c-5.14-3.43-8.56-3.43-10.28-1.71c-1.71,1.71-5.14,3.43-8.56,1.71
	c-3.43-1.71-5.14-3.43-6.85-6.85c0,0-8.56-68.5-29.11-102.75c-20.55-30.83-44.53-53.09-78.78-66.79l-5.14-1.71
	c-8.56-3.43-27.4-8.56-34.25-10.28l0,0c-5.14-1.71-11.99-3.43-18.84-3.43c0,3.43-1.71,6.85-3.43,10.28
	c-8.56,15.41-27.4,30.83-51.38,42.81c-23.98,11.99-47.95,17.13-63.36,15.41c-6.85,3.43-20.55,0-25.69-15.41
	c-3.43-11.99,0-23.98,10.28-34.25c20.55-22.26,68.5-34.25,114.74-32.54c-11.99-13.7-32.54-15.41-59.94-10.28
	c-23.98,5.14-44.53,15.41-44.53,17.13c-3.43,1.71-8.56,0-11.99-3.43c-1.71-3.43,0-8.56,3.43-11.99c3.43-1.71,90.76-47.95,128.44,0
	c3.43,3.43,5.14,6.85,5.14,10.28c6.85,0,15.41,1.71,22.26,3.43c1.71,0,25.69,5.14,35.96,10.28l5.14,1.71l0,0
	c35.96,15.41,65.08,39.39,85.63,73.64c18.84,29.11,27.4,77.06,30.83,99.33c5.14,0,8.56,0,13.7,3.43
	c11.99,5.14,25.69,20.55,22.26,44.53c-1.71,13.7-8.56,20.55-13.7,23.98c-8.56,5.14-20.55,5.14-27.4,3.43
	c-5.14,35.96-17.13,63.36-35.96,83.91c-30.83,35.96-75.35,59.94-128.44,68.5C457.47,520.45,457.47,520.45,455.76,520.45
	 M385.54,121.43h-1.71c-27.4,5.14-49.66,13.7-59.94,25.69c-5.14,5.14-6.85,11.99-5.14,18.84c0,1.71,1.71,5.14,11.99,6.85
	c11.99,1.71,32.54-5.14,53.09-15.41c20.55-10.28,37.68-23.98,44.53-35.96c0-1.71,1.71-1.71,1.71-3.43
	C414.66,118,400.96,119.72,385.54,121.43"/>
<path class="st0" d="M282.79,352.62c-1.71,6.85,10.28,8.56,11.99,1.71c3.43-13.7,8.56-25.69,23.98-22.26
	c5.14,1.71,11.99,3.43,15.41,6.85c5.14,5.14,13.7-5.14,6.85-8.56c-6.85-5.14-17.13-8.56-25.69-10.28
	C296.49,318.37,286.22,335.5,282.79,352.62 M498.57,314.95c3.43-5.14,8.56-8.56,13.7-11.99c13.7-8.56,23.98,0,30.83,11.99
	c3.43,6.85,11.99-1.71,8.56-6.85c-8.56-15.41-23.98-23.98-41.1-17.13c-8.56,3.43-17.13,10.28-22.26,18.84
	C484.87,314.95,493.43,321.8,498.57,314.95 M371.84,402.28c-1.71,1.71-1.71,1.71-1.71,3.43c0,0,20.55,44.53,61.65,42.81
	c1.71,0,1.71,0,3.43,0c37.68-6.85,47.95-37.68,49.66-54.8c0-1.71,0-3.43,0-3.43c0-1.71,0-3.43-1.71-3.43s-3.43,0-3.43,1.71
	c0,0-18.84,27.4-49.66,32.54c-25.69,3.43-39.39-3.43-56.51-17.13C375.27,402.28,373.56,402.28,371.84,402.28 M436.92,357.76
	c-1.71,0-3.43-1.71-3.43-3.43c0,0-3.43-8.56-13.7-6.85c-8.56,1.71-10.28,11.99-10.28,11.99c0,1.71-1.71,3.43-5.14,3.43
	c-1.71,0-3.43-1.71-3.43-5.14c0,0,3.43-15.41,17.13-17.13c13.7-1.71,20.55,10.28,20.55,13.7
	C440.34,356.05,438.63,357.76,436.92,357.76"/>
</svg>
